<svg xmlns="http://www.w3.org/2000/svg" viewBox="0 0 1200 600" fill="none" stroke="#D4AF37" stroke-width="0.5" stroke-opacity="0.12">
  <!-- North America -->
  <path d="M150 120 L180 100 L220 95 L260 100 L280 120 L300 110 L320 130 L310 160 L280 180 L260 200 L240 220 L220 250 L200 280 L180 300 L160 290 L140 260 L130 230 L120 200 L130 170 L140 140 Z"/>
  <path d="M180 300 L200 320 L220 340 L210 360 L190 370 L170 360 L160 340 L170 320 Z"/>

  <!-- South America -->
  <path d="M220 380 L250 370 L280 380 L300 400 L310 440 L300 480 L280 520 L260 550 L240 560 L220 540 L210 500 L200 460 L210 420 Z"/>

  <!-- Europe -->
  <path d="M480 100 L520 90 L560 100 L580 120 L600 110 L620 130 L610 160 L580 180 L550 190 L520 180 L490 170 L470 150 L480 130 Z"/>
  <path d="M520 180 L540 200 L530 220 L510 210 L500 190 Z"/>

  <!-- Africa -->
  <path d="M480 240 L520 230 L560 240 L590 260 L600 300 L590 350 L570 400 L540 440 L500 460 L460 450 L440 410 L450 360 L460 310 L470 270 Z"/>

  <!-- Asia -->
  <path d="M620 80 L680 70 L740 80 L800 90 L860 100 L920 120 L960 150 L980 180 L970 220 L940 250 L900 270 L850 280 L800 270 L750 260 L700 250 L660 230 L640 200 L630 160 L620 120 Z"/>
  <path d="M700 260 L720 280 L710 310 L680 320 L660 300 L670 280 Z"/>
  <path d="M800 280 L840 300 L860 340 L850 380 L820 400 L780 390 L760 360 L770 320 L790 300 Z"/>

  <!-- Southeast Asia / Indonesia -->
  <path d="M880 320 L920 310 L960 320 L980 350 L970 380 L940 390 L900 380 L880 350 Z"/>
  <path d="M920 400 L950 410 L970 430 L960 450 L930 450 L910 430 Z"/>

  <!-- Australia -->
  <path d="M920 480 L980 470 L1040 480 L1080 510 L1070 560 L1030 590 L970 590 L930 560 L920 520 Z"/>
  <path d="M1060 440 L1080 450 L1070 470 L1050 460 Z"/>

  <!-- Japan -->
  <path d="M1000 180 L1020 170 L1040 180 L1050 210 L1040 240 L1020 250 L1000 240 L990 210 Z"/>

  <!-- UK/Ireland -->
  <path d="M450 130 L470 120 L480 140 L470 160 L450 160 L440 145 Z"/>

  <!-- Greenland -->
  <path d="M320 50 L380 40 L420 50 L440 80 L430 110 L390 120 L350 110 L330 80 Z"/>

  <!-- Madagascar -->
  <path d="M620 420 L640 410 L650 440 L640 470 L620 470 L610 450 Z"/>

  <!-- New Zealand -->
  <path d="M1120 540 L1140 530 L1150 550 L1140 580 L1120 580 L1110 560 Z"/>
</svg>
