<svg xmlns="http://www.w3.org/2000/svg" width="40" height="40" version="1.0" viewBox="0 0 30 30"><defs><clipPath id="a"><path d="M4.344 1.773H25.39v25.403H4.344Zm0 0"/></clipPath><clipPath id="b"><path d="M4.344 1.773H25.39V25H4.344Zm0 0"/></clipPath><clipPath id="c"><path d="M19 5h6.39v10H19Zm0 0"/></clipPath></defs><g clip-path="url(#a)"><path fill="#7d39ee" fill-rule="evenodd" d="m14.867 1.797 5.262 3.172 5.262 3.168-3.957-2.383-.016.008Zm4.75 5.09L23.54 9.25l-4.336-2.61-4.336-2.613ZM6.191 15.883v3.816l4.336 2.613 4.34 2.61 4.336-2.61L23.54 19.7v-6.691l1.852 1.183v6.621l-5.262 3.168-5.262 3.172-5.262-3.172-5.261-3.168v-4.546l1.261-.754ZM4.344 8.137l5.261-3.168 5.262-3.172Zm0 0"/></g><path fill="#111727" fill-rule="evenodd" d="m10.629 12.98 3.254 1.957v4.043l-3.254-1.953Zm0 0"/><path fill="#f49e0b" fill-rule="evenodd" d="m19.102 17.027-3.266 1.965v-4.055l3.266-1.953Zm0 0"/><path fill="#111727" fill-rule="evenodd" d="m14.867 9.371 3.34 2.012-3.34 1.953-3.344-1.953Zm0 0"/><path fill="#7d39ee" fill-rule="evenodd" d="m14.867 7.133 6.094 3.672v7.34l-6.094 3.671-3.05-1.836-3.047-1.835v-7.34l3.046-1.836Zm0 2.238 4.235 2.555v5.101l-4.235 2.555-2.12-1.277-2.118-1.278v-5.101l2.117-1.278Zm0 0"/><path fill="#fbbf23" fill-rule="evenodd" d="m14.867 9.371 4.235 2.555v5.101l-4.235 2.555-2.12-1.277-2.118-1.278 3.25 1.957v-4.047l-3.25-1.953v-1.058l2.117-1.278 2.035-1.226-3.258 1.965 3.344 1.953 3.34-1.957-3.34-2.008Zm4.235 7.656-3.266 1.965v-4.055l3.266-1.953Zm0 0"/><g clip-path="url(#b)"><path fill="#1c40ae" fill-rule="evenodd" d="m15.203 7.336 2.621-1.527-2.957-1.782-2.914 1.754 2.5 1.602-1.75 1.055-.742-.473.031.898L10.11 10l-.004-3.105L6.191 9.25v3.762L8.77 11.43v2.199l-1.305.812 1.305.793v2.243c-2.59-1.61-1.434-.899-3.176-1.957l-1.25.746v-8.13l10.523-6.34 6.555 3.966-1.809 1.125-.023 3.09-1.774-1.067-.039-.922-.777.43-1.8-1.086Zm5.758 10.144 2.336-1.449.808-.492 1.286.832v-2.18a271 271 0 0 0-4.43-2.765v2.199l1.312.816-1.312.79Zm-5.77 4.141 2.621 1.527 1.805-1.085-.027-3.09-1.774 1.066-.035.934L17 20.53Zm-3.449 1.692-1.558 1.019-1.922-1.156 1.847-1.117v-3.106l1.887 1.137-.035.906.75-.476 1.75 1.054Zm0 0"/></g><path fill="#111727" fill-rule="evenodd" d="m6.191 19.7 3.91 2.355.008.004v-3.106l1.887 1.137-.035.906.75-.476 1.75 1.054-2.5 1.598 2.906 1.75 2.945-1.774-2.62-1.527-.325.195-6.097-3.671v-.668L6.19 15.875Zm1.274-5.259 1.305.793V13.63Zm4.484-8.66 2.504 1.602.414-.25.336.203 2.621-1.531-2.957-1.778Zm.754 2.657-.742-.473.031.898Zm5.078-.45-.781.43.816.492ZM6.191 9.25v3.758L8.77 11.43v-.625L10.11 10l-.005-3.105Zm11.59 11.723.035-.934-.816.492Zm0 0"/><g clip-path="url(#c)"><path fill="#fbbf23" fill-rule="evenodd" d="m25.39 8.137-3.956-2.383-1.817 1.133L23.54 9.25v3.773l1.852 1.168Zm0 0"/></g><path fill="#f49e0b" fill-rule="evenodd" d="m23.297 16.031-2.336 1.45v-2.247l1.312-.793-1.312-.816.008-2.195 2.57 1.593V9.25l-3.922-2.363-.023 3.093 1.367.825v7.34l-1.371.828.027 3.09 3.922-2.364v-3.816Zm0 0"/></svg>