<svg xmlns="http://www.w3.org/2000/svg" width="200" height="200" version="1.0" viewBox="0 0 150 150"><defs><clipPath id="a"><path d="M19.934 9.16h110.25v132H19.934Zm0 0"/></clipPath><clipPath id="b"><path d="M19.934 9.16h110.25V127H19.934Zm0 0"/></clipPath><clipPath id="c"><path d="M99 29h31.184v45H99Zm0 0"/></clipPath></defs><g clip-path="url(#a)"><path fill="#7d39ee" fill-rule="evenodd" d="m75.059 9.285 27.558 16.469 27.563 16.469-20.727-12.383-.07.043ZM99.934 35.73l20.562 12.286L97.781 34.44 75.062 20.867l24.88 14.867ZM29.625 82.48v19.832l22.715 13.575 22.719 13.574 22.714-13.574 22.72-13.574V67.53l9.687 6.156v34.415l-27.563 16.468-27.558 16.47-55.125-32.938V84.465l6.613-3.906Zm-9.691-40.257L75.059 9.285Zm0 0"/></g><path fill="#111727" fill-rule="evenodd" d="m52.867 67.402 17.031 10.16v21.024l-17.03-10.164Zm0 0"/><path fill="#f49e0b" fill-rule="evenodd" d="M97.246 88.43 80.141 98.648V77.563l17.105-10.157Zm0 0"/><path fill="#111727" fill-rule="evenodd" d="m75.059 48.64 17.488 10.45-17.473 10.16-17.52-10.148Zm0 0"/><path fill="#7d39ee" fill-rule="evenodd" d="m75.059 37.004 15.96 9.539 15.965 9.539v38.152l-15.964 9.54-15.961 9.539-31.93-19.079V56.082Zm0 11.637 11.097 6.632 11.094 6.633V88.43l-11.094 6.632-11.097 6.633L52.863 88.43V61.906Zm0 0"/><path fill="#fbbf23" fill-rule="evenodd" d="m75.059 48.64 11.097 6.633 11.094 6.633V88.43l-11.094 6.632-11.097 6.633L52.863 88.43l17.032 10.16V77.57L52.863 67.406v-5.5l11.098-6.633 10.648-6.363-17.054 10.195 17.52 10.153 17.472-10.156-17.488-10.45ZM97.25 88.423 80.137 98.648V77.563l17.11-10.149v21.008Zm0 0"/><g clip-path="url(#b)"><path fill="#1c40ae" fill-rule="evenodd" d="m76.813 38.055 13.73-7.934-15.484-9.254L59.8 29.984l13.09 8.32-9.16 5.473-3.891-2.437.172 4.66-9.871 5.898-.012-16.136-20.504 12.254v19.539l13.508-8.215v11.433l-6.836 4.215 6.836 4.121v11.657c-13.567-8.375-7.528-4.668-16.637-10.18l-6.562 3.879V42.223L75.059 9.285l34.336 20.606-9.465 5.832-.125 16.07-9.301-5.559-.192-4.789-4.078 2.239-9.425-5.633Zm30.171 52.734 12.23-7.547 4.24-2.547 6.73 4.328V73.68a1542 1542 0 0 0-23.2-14.368v11.434l6.871 4.238-6.87 4.114Zm-30.222 21.512 13.73 7.933 9.442-5.636-.13-16.07-9.3 5.558-.184 4.84-4.082-2.293Zm-18.063 8.789-8.168 5.297-10.062-6.016 9.683-5.797-.011-16.144 9.89 5.906-.191 4.71 3.93-2.48 9.171 5.485Zm0 0"/></g><path fill="#111727" fill-rule="evenodd" d="m29.625 102.313 20.48 12.234.047.027-.011-16.144 9.89 5.906-.191 4.71 3.93-2.476 9.171 5.48-13.101 8.317 15.219 9.094 15.433-9.227-13.73-7.933-1.703 1.015-31.926-19.074v-3.476L29.625 82.43Zm6.672-27.325 6.836 4.121v-8.34Zm23.488-44.996 13.11 8.313 2.164-1.301 1.754 1.05 13.73-7.94-15.484-9.25Zm3.945 13.785-3.89-2.437.172 4.66Zm26.59-2.328-4.082 2.239 4.278 2.55Zm-60.695 6.563v19.535l13.508-8.211v-3.254l7.008-4.184-.012-16.136Zm60.695 60.914.184-4.84-4.266 2.547Zm0 0"/><g clip-path="url(#c)"><path fill="#fbbf23" fill-rule="evenodd" d="M130.184 42.223 109.46 29.84l-9.527 5.89 20.562 12.282v19.597l9.688 6.07Zm0 0"/></g><path fill="#f49e0b" fill-rule="evenodd" d="m119.215 83.242-12.23 7.535V79.113l6.87-4.125-6.87-4.238.035-11.414 13.476 8.273V48.012L99.934 35.73l-.121 16.067 7.171 4.285v38.16l-7.18 4.285.13 16.07 20.562-12.284v-19.84Zm0 0"/></svg>