<svg xmlns="http://www.w3.org/2000/svg" width="80" height="80" version="1.0" viewBox="0 0 60 60"><defs><clipPath id="a"><path d="M7.145 2.672h45.75v54.75H7.145Zm0 0"/></clipPath><clipPath id="b"><path d="M7.145 2.672h45.75V52H7.145Zm0 0"/></clipPath><clipPath id="c"><path d="M40 11h12.895v19H40Zm0 0"/></clipPath></defs><g clip-path="url(#a)"><path fill="#7d39ee" fill-rule="evenodd" d="M30.016 2.719 52.89 16.383l-8.598-5.137-.031.02ZM40.34 13.69l8.535 5.094-9.43-5.629-9.425-5.629 10.324 6.164ZM11.164 33.082v8.227l9.426 5.632 9.426 5.63 9.43-5.63 9.425-5.632V26.883l4.02 2.55v14.278L30.016 57.375l-11.434-6.832-11.437-6.832v-9.805l2.742-1.62Zm-4.02-16.7 11.438-6.831 11.434-6.832Zm0 0"/></g><path fill="#111727" fill-rule="evenodd" d="m20.809 26.828 7.066 4.215v8.719l-7.066-4.215Zm0 0"/><path fill="#f49e0b" fill-rule="evenodd" d="m39.227 35.55-7.098 4.24v-8.747l7.098-4.211Zm0 0"/><path fill="#111727" fill-rule="evenodd" d="m30.016 19.047 7.261 4.332-7.254 4.215-7.27-4.211Zm0 0"/><path fill="#7d39ee" fill-rule="evenodd" d="m30.016 14.219 13.25 7.914v15.824l-13.25 7.914-6.621-3.957-6.625-3.957V22.133l6.625-3.957Zm0 4.828 9.21 5.5V35.55l-9.21 5.5-4.602-2.75-4.605-2.75V24.547l4.605-2.75Zm0 0"/><path fill="#fbbf23" fill-rule="evenodd" d="m30.016 19.047 9.21 5.5V35.55l-9.21 5.5-4.602-2.75-4.605-2.75 7.066 4.215v-8.72l-7.066-4.214v-2.285l4.605-2.75 4.418-2.64-7.078 4.23 7.27 4.21 7.253-4.214-7.261-4.332Zm9.21 16.5-7.101 4.242v-8.746l7.102-4.211Zm0 0"/><g clip-path="url(#b)"><path fill="#1c40ae" fill-rule="evenodd" d="m30.746 14.656 5.7-3.293-6.43-3.836-6.328 3.782 5.43 3.449-3.802 2.27-1.613-1.012.07 1.933-4.093 2.45-.008-6.696-8.508 5.082v8.106l5.606-3.407v4.743l-2.836 1.75 2.836 1.707v4.836c-5.63-3.473-3.122-1.938-6.903-4.223l-2.722 1.61V16.382l22.87-13.664 14.25 8.55-3.925 2.419-.05 6.667-3.86-2.308-.082-1.985-1.692.926-3.91-2.336Zm12.52 21.875 5.078-3.133 1.758-1.054 2.793 1.793v-4.703a638 638 0 0 0-9.63-5.961v4.742l2.852 1.758-2.851 1.707Zm-12.54 8.922 5.696 3.293 3.918-2.34-.05-6.668-3.86 2.309-.078 2.008-1.696-.953Zm-7.496 3.645-3.39 2.195-4.176-2.492 4.02-2.406-.004-6.696 4.101 2.45-.078 1.953 1.629-1.028 3.809 2.274Zm0 0"/></g><path fill="#111727" fill-rule="evenodd" d="m11.164 41.309 8.5 5.078.02.008-.004-6.696 4.101 2.45-.078 1.953 1.629-1.024 3.809 2.27-5.438 3.449 6.313 3.773 6.406-3.824-5.695-3.293-.711.422-13.246-7.914V36.52l-5.606-3.458Zm2.77-11.332 2.836 1.707v-3.457Zm9.746-18.668 5.441 3.449.895-.54.73.438 5.7-3.297-6.43-3.836Zm1.636 5.718-1.613-1.011.07 1.933Zm11.036-.965-1.696.93 1.778 1.059Zm-25.188 2.723v8.106l5.606-3.407v-1.351l2.91-1.735-.008-6.695Zm25.188 25.27.078-2.008-1.774 1.055Zm0 0"/><g clip-path="url(#c)"><path fill="#fbbf23" fill-rule="evenodd" d="m52.895 16.383-8.602-5.137-3.953 2.445 8.535 5.094v8.13l4.02 2.519Zm0 0"/></g><path fill="#f49e0b" fill-rule="evenodd" d="m48.344 33.398-5.078 3.125v-4.836l2.851-1.71-2.851-1.758.015-4.735 5.594 3.43v-8.129l-8.535-5.094-.05 6.664 2.976 1.778V37.96l-2.977 1.777.05 6.668 8.536-5.097v-8.23Zm0 0"/></svg>